<?xml version="1.0" encoding="iso-8859-1"?>
<!-- Generator: Adobe Illustrator 19.0.0, SVG Export Plug-In . SVG Version: 6.00 Build 0)  -->
<svg version="1.1" id="Layer_1" xmlns="http://www.w3.org/2000/svg" xmlns:xlink="http://www.w3.org/1999/xlink" x="0px" y="0px"
	 viewBox="0 0 512 512" style="enable-background:new 0 0 512 512;" xml:space="preserve">
<g>
	<g>
		<path d="M510.917,218.36l-8.622-15.176l-2.307-9.888c-0.265-1.137-0.767-2.205-1.474-3.134
			c-0.906-1.192-9.448-11.774-30.254-16.352c-0.292-0.064-0.583-0.111-0.874-0.143l-2.487-3.73
			c-2.297-3.446-6.784-4.669-10.513-2.865c-1.554,0.752-3.41,1.937-5.254,3.525c-4.19-0.533-19.771-2.509-28.888-3.561
			c-1.952-0.226-3.157-1.025-5.701-2.811c-4.102-2.882-9.718-6.828-20.316-6.828c-8.805,0-15.524,1.647-21.451,3.101
			c-6.476,1.588-11.155,2.734-17.019,1.501c-18.663-3.931-73.082-2.7-95.326,0.263c-3.41,0.456-6.307,0.053-9.972-0.458
			c-6.099-0.849-13.689-1.906-25.944,0.546c-35.332,7.066-61.013,28.315-74.267,61.45c-7.242,18.105-19.63,36.278-33.985,49.859
			c-13.32,12.602-27.226,20.124-37.197,20.124c-9.244,0-17.72-4.349-23.256-11.932c-6.157-8.435-7.7-19.489-4.232-30.326
			c1.793-5.6,6.492-24.515-8.266-32.79c-9.927-5.566-24.181-2.427-32.45,7.148C4.343,233.434,0,243.262,0,266.691
			c0,17.621,9.026,35.572,24.763,49.249c15.335,13.327,35.128,20.971,54.304,20.971c17.756,0,33.674-6.231,47.585-15.618
			c5.036,12.678,14.931,27.597,16.304,29.642c1.542,2.292,4.123,3.668,6.885,3.668h17.693c4.58,0,8.294-3.712,8.294-8.294
			c0-4.581-3.713-8.294-8.294-8.294H155.18c0.013-0.596-0.033-1.202-0.155-1.811c-2.089-10.443,8.054-17.672,23.765-27.51
			c3.246-2.033,6.435-4.031,9.402-6.09c-0.661,8.536-2.165,15.154-2.194,15.275c-0.75,3.205,0.466,6.55,3.1,8.525l35.387,26.54
			c1.435,1.077,3.182,1.659,4.976,1.659h17.693c4.58,0,8.294-3.712,8.294-8.294c0-4.581-3.713-8.294-8.294-8.294h-3.721
			l-10.807-21.617c-1.179-2.359-0.85-5.127,0.837-7.051c4.809-5.482,12.203-14.651,19.178-26.239
			c0.076,0.034,0.149,0.074,0.228,0.106c19.453,7.933,37.84,10.522,53.553,10.522c6.949,0,13.362-0.512,19.126-1.286l-6.908,34.538
			c-0.544,2.719,0.307,5.53,2.268,7.491l17.693,17.693c1.555,1.555,3.665,2.428,5.864,2.428h17.693c4.58,0,8.294-3.712,8.294-8.294
			s-3.713-8.294-8.294-8.294h-8.907l21.044-49.101c9.711,19.697,26.569,45.453,53.945,64.234c1.381,0.947,3.017,1.454,4.692,1.454
			h26.54c4.58,0,8.294-3.712,8.294-8.294s-3.713-8.294-8.294-8.294h-4.692c-15.82-21.999-22.82-50.418-23.562-74.961l21.919-14.611
			h41.722c3.142,0,6.013-1.775,7.418-4.585l8.847-17.693C512.362,223.693,512.283,220.765,510.917,218.36z M169.987,294.636
			c-9.281,5.81-20.667,12.948-27.004,22.814c-1.192-2.69-2.071-5.106-2.484-7.031c17.48-15.709,30.905-35.505,39.793-50.967
			c1.577,5.701,3.601,11.773,5.912,18.707c0.344,1.032,0.64,2.1,0.897,3.193C184.873,285.315,176.993,290.25,169.987,294.636z
			 M339.015,329.129l-3.239-3.239l7.39-36.949c5.619-1.503,10.754-3.263,15.276-5.141L339.015,329.129z M489.734,231.857h-39.108
			c-1.637,0-3.238,0.484-4.6,1.393l-13.879,9.253c0.052-0.399,0.097-0.805,0.153-1.2c0.637-4.536-2.525-8.729-7.061-9.365
			c-4.541-0.64-8.729,2.522-9.366,7.061c-3.912,27.872,0.794,67.005,18.827,98.396c-41.986-30.651-55.529-81.111-55.664-81.627
			c-1.147-4.43-5.666-7.094-10.096-5.955c-4.435,1.142-7.106,5.664-5.965,10.101c0.064,0.248,0.284,1.083,0.678,2.402
			c-8.052,6.468-52.833,25.933-103.165,6.08c1.136-2.445,2.224-4.95,3.232-7.517c1.675-4.263-0.424-9.077-4.687-10.752
			c-4.265-1.674-9.078,0.424-10.752,4.687c-7.735,19.688-20.417,35.767-27.287,43.599c-6.155,7.018-7.414,16.991-3.205,25.409
			l2.697,5.395l-17.281-12.96c1.56-9.187,3.769-28.24-1.264-43.339c-5.876-17.627-9.423-28.268-8.445-40.974
			c0.313-4.064-2.374-7.753-6.339-8.702c-3.96-0.944-8.031,1.124-9.592,4.889c-0.383,0.921-38.93,92.196-98.499,92.196
			c-31.532,0-62.479-26.565-62.479-53.633c0-22.057,4.443-27.202,6.83-29.966c3.319-3.845,9.059-5.05,11.784-3.523
			c2.523,1.415,2.746,6.499,0.581,13.267c-5.1,15.939-2.683,32.401,6.633,45.162c8.693,11.91,22.052,18.739,36.654,18.739
			c29.498,0,69.148-36.823,86.583-80.411c11.229-28.073,32.129-45.347,62.119-51.345c9.499-1.9,15.044-1.128,20.405-0.384
			c4.326,0.604,8.801,1.224,14.451,0.472c22.234-2.965,74.228-3.737,89.716-0.476c9.562,2.015,17.096,0.165,24.386-1.622
			c5.26-1.289,10.7-2.623,17.502-2.623c5.353,0,7.512,1.517,10.78,3.813c3.17,2.227,7.115,4.998,13.335,5.716
			c6.281,0.725,15.692,1.896,22.244,2.721c-0.23,2.289-0.115,4.757,0.462,7.399c0.848,3.878,4.281,6.523,8.094,6.523
			c0.587,0,1.183-0.063,1.78-0.194c4.474-0.98,7.308-5.4,6.33-9.875c-0.153-0.697-0.196-1.347-0.155-1.952l3.583,5.374
			c2.541,3.812,7.692,4.841,11.501,2.3c1.052-0.701,1.883-1.606,2.495-2.622c5.115,2.223,8.189,4.654,9.658,6.028l2.077,8.903
			c0.181,0.775,0.472,1.521,0.866,2.213l7.03,12.372L489.734,231.857z"/>
	</g>
</g>
<g>
</g>
<g>
</g>
<g>
</g>
<g>
</g>
<g>
</g>
<g>
</g>
<g>
</g>
<g>
</g>
<g>
</g>
<g>
</g>
<g>
</g>
<g>
</g>
<g>
</g>
<g>
</g>
<g>
</g>
</svg>
